<?xml version="1.0" encoding="UTF-8"?>
<svg xmlns="http://www.w3.org/2000/svg" xmlns:xlink="http://www.w3.org/1999/xlink" width="40px" height="40px" viewBox="0 0 40 40" version="1.1">
<g id="surface1">
<path style=" stroke:none;fill-rule:nonzero;fill:rgb(39.607844%,60.392159%,82.745099%);fill-opacity:1;" d="M 36.0625 9.59375 L 20.96875 0.90625 C 20.71875 0.75 20.375 0.6875 20 0.6875 C 19.625 0.6875 19.28125 0.78125 19.03125 0.90625 L 4.03125 9.625 C 3.5 9.9375 3.125 10.71875 3.125 11.3125 L 3.125 28.71875 C 3.125 29.0625 3.1875 29.46875 3.4375 29.8125 L 36.8125 10.4375 C 36.625 10.0625 36.34375 9.78125 36.0625 9.59375 Z M 36.0625 9.59375 "/>
<path style=" stroke:none;fill-rule:nonzero;fill:rgb(1.176471%,34.901962%,61.176473%);fill-opacity:1;" d="M 3.34375 29.78125 C 3.5 30.03125 3.71875 30.25 3.9375 30.375 L 19 39.09375 C 19.25 39.25 19.59375 39.3125 19.96875 39.3125 C 20.34375 39.3125 20.6875 39.21875 20.9375 39.09375 L 35.9375 30.375 C 36.46875 30.0625 36.84375 29.28125 36.84375 28.6875 L 36.84375 11.28125 C 36.84375 11 36.8125 10.6875 36.65625 10.40625 Z M 3.34375 29.78125 "/>
<path style=" stroke:none;fill-rule:nonzero;fill:rgb(100%,100%,100%);fill-opacity:1;" d="M 26.65625 23.78125 C 25.34375 26.09375 22.84375 27.65625 20 27.65625 C 15.78125 27.65625 12.34375 24.21875 12.34375 20 C 12.34375 15.78125 15.78125 12.34375 20 12.34375 C 22.84375 12.34375 25.34375 13.90625 26.65625 16.25 L 30.71875 13.90625 C 28.59375 10.1875 24.59375 7.65625 20 7.65625 C 13.1875 7.65625 7.65625 13.1875 7.65625 20 C 7.65625 26.8125 13.1875 32.34375 20 32.34375 C 24.5625 32.34375 28.5625 29.84375 30.6875 26.15625 Z M 26.65625 23.78125 "/>
</g>
</svg>
