<?xml version="1.0" encoding="UTF-8"?>
<svg xmlns="http://www.w3.org/2000/svg" xmlns:xlink="http://www.w3.org/1999/xlink" width="40px" height="40px" viewBox="0 0 40 40" version="1.1">
<g id="surface1">
<path style=" stroke:none;fill-rule:nonzero;fill:rgb(12.156863%,38.431373%,68.235296%);fill-opacity:1;" d="M 34.222656 36.109375 L 20 40 L 5.78125 36.109375 L 2.5 0 L 37.503906 0 Z M 34.222656 36.109375 "/>
<path style=" stroke:none;fill-rule:nonzero;fill:rgb(20.392157%,49.019608%,77.64706%);fill-opacity:1;" d="M 20 2.5 L 20 37.1875 L 31.539062 33.761719 L 34.609375 2.5 Z M 20 2.5 "/>
<path style=" stroke:none;fill-rule:nonzero;fill:rgb(100%,100%,100%);fill-opacity:1;" d="M 30.453125 7.5 L 9.507812 7.5 L 10 12.5 L 20 12.5 L 10.3125 16.238281 L 10.773438 21.25 L 24.378906 21.25 L 23.949219 26.25 L 20 27.488281 L 16.078125 26.230469 L 15.667969 23.75 L 11.003906 23.75 L 11.578125 29.984375 L 20 32.488281 L 28.410156 29.984375 L 29.648438 16.238281 L 20.03125 16.238281 L 30 12.5 Z M 30.453125 7.5 "/>
</g>
</svg>
