<?xml version="1.0" encoding="UTF-8"?>
<svg xmlns="http://www.w3.org/2000/svg" xmlns:xlink="http://www.w3.org/1999/xlink" width="40px" height="40px" viewBox="0 0 40 40" version="1.1">
<g id="surface1">
<path style=" stroke:none;fill-rule:nonzero;fill:rgb(94.117647%,23.529412%,18.039216%);fill-opacity:1;" d="M 39.246094 18.21875 L 21.78125 0.753906 C 20.777344 -0.25 19.144531 -0.25 18.140625 0.753906 L 14.515625 4.378906 L 19.113281 8.980469 C 20.183594 8.605469 21.410156 8.859375 22.261719 9.714844 C 23.089844 10.542969 23.371094 11.773438 22.988281 12.878906 L 27.421875 17.3125 C 28.492188 16.945312 29.730469 17.183594 30.585938 18.042969 C 31.785156 19.238281 31.785156 21.179688 30.585938 22.375 C 29.390625 23.574219 27.449219 23.574219 26.25 22.375 C 25.351562 21.476562 25.128906 20.152344 25.582031 19.042969 L 21.449219 14.90625 L 21.449219 25.789062 C 21.75 25.9375 22.023438 26.132812 22.261719 26.367188 C 23.457031 27.566406 23.457031 29.507812 22.261719 30.703125 C 21.0625 31.902344 19.125 31.902344 17.925781 30.703125 C 17.351562 30.128906 17.027344 29.347656 17.027344 28.535156 C 17.027344 27.722656 17.351562 26.941406 17.925781 26.367188 C 18.222656 26.074219 18.550781 25.851562 18.929688 25.699219 L 18.929688 14.71875 C 18.566406 14.566406 18.222656 14.347656 17.925781 14.046875 C 17.046875 13.167969 16.785156 11.84375 17.265625 10.699219 L 12.730469 6.164062 L 0.753906 18.125 C 0.269531 18.609375 0 19.261719 0 19.945312 C 0 20.628906 0.269531 21.285156 0.753906 21.769531 L 18.21875 39.230469 C 19.222656 40.238281 20.855469 40.238281 21.859375 39.230469 L 39.246094 21.875 C 39.730469 21.390625 40 20.738281 40 20.054688 C 40 19.371094 39.730469 18.714844 39.246094 18.230469 "/>
</g>
</svg>
