<?xml version="1.0" encoding="UTF-8"?>
<svg xmlns="http://www.w3.org/2000/svg" xmlns:xlink="http://www.w3.org/1999/xlink" width="40px" height="40px" viewBox="0 0 40 40" version="1.1">
<g id="surface1">
<path style=" stroke:none;fill-rule:evenodd;fill:rgb(89.411765%,30.19608%,14.901961%);fill-opacity:1;" d="M 40 0.0859375 L 36.355469 35.929688 L 19.976562 39.914062 L 3.640625 35.933594 L 0 0.0859375 Z M 40 0.0859375 "/>
<path style=" stroke:none;fill-rule:evenodd;fill:rgb(94.509804%,39.607844%,16.078432%);fill-opacity:1;" d="M 20 36.867188 L 33.238281 33.648438 L 36.347656 3.015625 L 20 3.015625 Z M 20 36.867188 "/>
<path style=" stroke:none;fill-rule:evenodd;fill:rgb(92.156863%,92.156863%,92.156863%);fill-opacity:1;" d="M 12.917969 11.808594 L 20 11.808594 L 20 7.414062 L 7.441406 7.414062 L 7.5625 8.59375 L 8.789062 20.710938 L 19.996094 20.710938 L 19.996094 16.3125 L 13.375 16.3125 Z M 14.042969 22.90625 L 9.019531 22.90625 L 9.71875 29.8125 L 19.980469 32.3125 L 20 32.304688 L 20 27.730469 L 19.980469 27.738281 L 14.402344 26.414062 Z M 14.042969 22.90625 "/>
<path style=" stroke:none;fill-rule:evenodd;fill:rgb(100%,100%,100%);fill-opacity:1;" d="M 19.984375 20.710938 L 26.148438 20.710938 L 25.570312 26.410156 L 19.984375 27.734375 L 19.984375 32.308594 L 30.25 29.808594 L 30.324219 29.066406 L 31.5 17.492188 L 31.625 16.3125 L 19.984375 16.3125 Z M 19.984375 11.800781 L 19.984375 11.808594 L 32.078125 11.808594 L 32.175781 10.820312 L 32.40625 8.589844 L 32.523438 7.410156 L 19.984375 7.410156 Z M 19.984375 11.800781 "/>
</g>
</svg>
