<?xml version="1.0" encoding="UTF-8"?>
<svg xmlns="http://www.w3.org/2000/svg" xmlns:xlink="http://www.w3.org/1999/xlink" width="40px" height="40px" viewBox="0 0 40 40" version="1.1">
<g id="surface1">
<path style=" stroke:none;fill-rule:nonzero;fill:rgb(0.784314%,20.392157%,18.82353%);fill-opacity:1;" d="M 9.375 0 L 30.625 0 C 35.800781 0 40 4.199219 40 9.375 L 40 30.625 C 40 35.800781 35.800781 40 30.625 40 L 9.375 40 C 4.199219 40 0 35.800781 0 30.625 L 0 9.375 C 0 4.199219 4.199219 0 9.375 0 Z M 9.375 0 "/>
<path style=" stroke:none;fill-rule:nonzero;fill:rgb(6.27451%,66.666669%,31.37255%);fill-opacity:1;" d="M 26.746094 16.8125 C 25.097656 9.546875 21.667969 7.613281 20.792969 6.25 C 20.433594 5.644531 20.113281 5.019531 19.835938 4.375 C 19.789062 5.019531 19.703125 5.425781 19.15625 5.914062 C 18.054688 6.898438 13.378906 10.707031 12.984375 18.960938 C 12.617188 26.65625 18.640625 31.398438 19.4375 31.890625 C 20.046875 32.191406 20.792969 31.894531 21.15625 31.621094 C 24.0625 29.625 28.027344 24.316406 26.75 16.8125 "/>
<path style=" stroke:none;fill-rule:nonzero;fill:rgb(72.156864%,76.862746%,76.078433%);fill-opacity:1;" d="M 20.085938 27.792969 C 19.933594 29.695312 19.824219 30.804688 19.441406 31.890625 C 19.441406 31.890625 19.691406 33.703125 19.871094 35.625 L 20.5 35.625 C 20.648438 34.273438 20.875 32.929688 21.183594 31.605469 C 20.371094 31.203125 20.117188 29.464844 20.085938 27.792969 Z M 20.085938 27.792969 "/>
<path style=" stroke:none;fill-rule:nonzero;fill:rgb(7.058824%,57.254905%,30.980393%);fill-opacity:1;" d="M 21.183594 31.605469 C 20.359375 31.226562 20.121094 29.449219 20.085938 27.792969 C 20.289062 25.0625 20.347656 22.320312 20.265625 19.582031 C 20.21875 18.144531 20.285156 6.277344 19.910156 4.539062 C 20.164062 5.128906 20.460938 5.699219 20.792969 6.246094 C 21.667969 7.613281 25.101562 9.546875 26.746094 16.8125 C 28.027344 24.300781 24.082031 29.601562 21.183594 31.605469 Z M 21.183594 31.605469 "/>
</g>
</svg>
