<?xml version="1.0" encoding="UTF-8"?>
<svg xmlns="http://www.w3.org/2000/svg" xmlns:xlink="http://www.w3.org/1999/xlink" width="40px" height="40px" viewBox="0 0 40 40" version="1.1">
<defs>
<linearGradient id="linear0" gradientUnits="userSpaceOnUse" x1="70.251999" y1="1237.475952" x2="170.658997" y2="1151.088989" gradientTransform="matrix(0.175938,0,0,-0.1775,-9.129688,224.399068)">
<stop offset="0" style="stop-color:rgb(35.294119%,62.352943%,83.137256%);stop-opacity:1;"/>
<stop offset="1" style="stop-color:rgb(18.82353%,41.176471%,59.607846%);stop-opacity:1;"/>
</linearGradient>
<linearGradient id="linear1" gradientUnits="userSpaceOnUse" x1="209.473999" y1="1098.811035" x2="173.619995" y2="1149.536987" gradientTransform="matrix(0.175938,0,0,-0.1775,-9.129688,224.399068)">
<stop offset="0" style="stop-color:rgb(100%,83.137256%,23.137255%);stop-opacity:1;"/>
<stop offset="1" style="stop-color:rgb(100%,90.980393%,45.09804%);stop-opacity:1;"/>
</linearGradient>
<filter id="alpha" filterUnits="objectBoundingBox" x="0%" y="0%" width="100%" height="100%">
  <feColorMatrix type="matrix" in="SourceGraphic" values="0 0 0 0 1 0 0 0 0 1 0 0 0 0 1 0 0 0 1 0"/>
</filter>
<mask id="mask0">
  <g filter="url(#alpha)">
<rect x="0" y="0" width="40" height="40" style="fill:rgb(0%,0%,0%);fill-opacity:0.444;stroke:none;"/>
  </g>
</mask>
<radialGradient id="radial0" gradientUnits="userSpaceOnUse" cx="1825.677979" cy="444.450012" fx="1825.677979" fy="444.450012" r="26.743" gradientTransform="matrix(0,-0.075,-0.329687,0,166.555939,174.242496)">
<stop offset="0" style="stop-color:rgb(72.156864%,72.156864%,72.156864%);stop-opacity:0.498;"/>
<stop offset="1" style="stop-color:rgb(49.803922%,49.803922%,49.803922%);stop-opacity:0;"/>
</radialGradient>
<clipPath id="clip1">
  <rect x="0" y="0" width="40" height="40"/>
</clipPath>
<g id="surface5" clip-path="url(#clip1)">
<path style=" stroke:none;fill-rule:nonzero;fill:url(#radial0);" d="M 30.410156 37.375 C 30.410156 38.480469 25.777344 39.378906 20.066406 39.378906 C 14.355469 39.378906 9.726562 38.480469 9.726562 37.375 C 9.726562 36.265625 14.355469 35.367188 20.066406 35.367188 C 25.777344 35.367188 30.410156 36.265625 30.410156 37.375 Z M 30.410156 37.375 "/>
</g>
</defs>
<g id="surface1">
<path style=" stroke:none;fill-rule:nonzero;fill:url(#linear0);" d="M 19.808594 3.828125 C 18.492188 3.832031 17.230469 3.945312 16.121094 4.140625 C 12.855469 4.71875 12.265625 5.925781 12.265625 8.152344 L 12.265625 11.09375 L 19.980469 11.09375 L 19.980469 12.074219 L 9.367188 12.074219 C 7.125 12.074219 5.160156 13.421875 4.546875 15.988281 C 3.839844 18.925781 3.808594 20.761719 4.546875 23.832031 C 5.09375 26.113281 6.40625 27.742188 8.648438 27.742188 L 11.300781 27.742188 L 11.300781 24.21875 C 11.300781 21.667969 13.503906 19.421875 16.121094 19.421875 L 23.832031 19.421875 C 25.976562 19.421875 27.6875 17.65625 27.6875 15.5 L 27.6875 8.152344 C 27.6875 6.0625 25.925781 4.492188 23.832031 4.140625 C 22.503906 3.921875 21.128906 3.820312 19.808594 3.828125 Z M 15.636719 6.191406 C 16.433594 6.191406 17.085938 6.855469 17.085938 7.667969 C 17.085938 8.476562 16.433594 9.132812 15.636719 9.132812 C 14.835938 9.132812 14.1875 8.476562 14.1875 7.667969 C 14.1875 6.855469 14.835938 6.191406 15.636719 6.191406 Z M 15.636719 6.191406 "/>
<path style=" stroke:none;fill-rule:nonzero;fill:url(#linear1);" d="M 28.652344 12.074219 L 28.652344 15.5 C 28.652344 18.15625 26.398438 20.394531 23.828125 20.394531 L 16.121094 20.394531 C 14.011719 20.394531 12.265625 22.203125 12.265625 24.316406 L 12.265625 31.664062 C 12.265625 33.753906 14.082031 34.984375 16.121094 35.585938 C 18.566406 36.304688 20.90625 36.433594 23.828125 35.585938 C 25.773438 35.023438 27.6875 33.890625 27.6875 31.664062 L 27.6875 28.722656 L 19.980469 28.722656 L 19.980469 27.742188 L 31.546875 27.742188 C 33.789062 27.742188 34.625 26.179688 35.40625 23.828125 C 36.210938 21.414062 36.175781 19.089844 35.40625 15.988281 C 34.851562 13.753906 33.792969 12.074219 31.546875 12.074219 Z M 24.316406 30.683594 C 25.117188 30.683594 25.761719 31.339844 25.761719 32.148438 C 25.761719 32.960938 25.117188 33.625 24.316406 33.625 C 23.519531 33.625 22.867188 32.960938 22.867188 32.148438 C 22.867188 31.339844 23.519531 30.683594 24.316406 30.683594 Z M 24.316406 30.683594 "/>
<use xlink:href="#surface5" mask="url(#mask0)"/>
</g>
</svg>
