<?xml version="1.0" encoding="UTF-8"?>
<svg xmlns="http://www.w3.org/2000/svg" xmlns:xlink="http://www.w3.org/1999/xlink" width="40px" height="40px" viewBox="0 0 40 40" version="1.1">
<defs>
<filter id="alpha" filterUnits="objectBoundingBox" x="0%" y="0%" width="100%" height="100%">
  <feColorMatrix type="matrix" in="SourceGraphic" values="0 0 0 0 1 0 0 0 0 1 0 0 0 0 1 0 0 0 1 0"/>
</filter>
<mask id="mask0">
  <g filter="url(#alpha)">
<rect x="0" y="0" width="40" height="40" style="fill:rgb(0%,0%,0%);fill-opacity:0.2;stroke:none;"/>
  </g>
</mask>
<clipPath id="clip1">
  <rect x="0" y="0" width="40" height="40"/>
</clipPath>
<g id="surface5" clip-path="url(#clip1)">
<path style=" stroke:none;fill-rule:nonzero;fill:rgb(0%,0%,0%);fill-opacity:1;" d="M 10.03125 10 C 9.054688 9.980469 8.59375 10.65625 8.796875 11.820312 C 8.863281 12.195312 9.191406 12.734375 9.898438 13.625 C 10.6875 14.613281 11.007812 15.152344 11.351562 16.085938 C 11.890625 17.5625 12.144531 18.054688 12.582031 18.515625 C 12.925781 18.875 12.925781 18.875 12.695312 19.605469 C 12.339844 20.738281 12.265625 23.007812 12.550781 24.074219 C 12.980469 25.667969 13.507812 26.394531 14.242188 26.394531 C 14.765625 26.394531 15.195312 25.957031 15.347656 25.265625 C 15.402344 25.023438 15.503906 24.683594 15.570312 24.503906 C 15.691406 24.195312 15.722656 24.21875 16.1875 24.980469 C 16.460938 25.417969 16.976562 26.078125 17.335938 26.4375 C 18.164062 27.273438 19.300781 28.214844 19.386719 28.136719 C 19.417969 28.101562 19.085938 27.609375 18.648438 27.035156 C 18.207031 26.464844 17.378906 25.136719 16.804688 24.085938 C 16.132812 22.863281 15.679688 22.175781 15.539062 22.175781 C 15.074219 22.171875 14.640625 22.902344 14.390625 24.109375 C 14.105469 25.5 13.597656 25.269531 13.183594 23.554688 C 12.945312 22.5625 13.070312 21.234375 13.511719 19.984375 C 13.714844 19.417969 13.878906 18.894531 13.878906 18.820312 C 13.878906 18.75 13.558594 18.140625 13.164062 17.472656 C 12.769531 16.800781 12.308594 15.851562 12.136719 15.359375 C 11.722656 14.167969 11.523438 13.820312 10.6875 12.804688 C 9.828125 11.761719 9.746094 11.28125 10.433594 11.285156 C 10.964844 11.289062 11.824219 11.644531 12.6875 12.226562 C 13.230469 12.59375 13.417969 12.644531 14.292969 12.644531 C 15.394531 12.644531 15.632812 12.734375 17.160156 13.742188 C 18.714844 14.765625 19.875 15.71875 20.679688 16.632812 C 21.390625 17.441406 21.78125 18.148438 23.878906 22.453125 C 24.683594 24.101562 25.398438 24.902344 26.382812 25.242188 C 27.90625 25.769531 28.425781 26.007812 29.09375 26.488281 L 29.800781 26.996094 L 29.328125 27.089844 C 29.0625 27.140625 28.492188 27.222656 28.054688 27.273438 C 27.144531 27.378906 26.550781 27.753906 26.550781 28.226562 C 26.550781 28.761719 28.363281 30.285156 30.183594 31.28125 C 31.058594 31.757812 31.898438 32.226562 32.050781 32.328125 C 32.457031 32.589844 32.570312 32.554688 32.464844 32.210938 C 32.242188 31.492188 31.496094 30.789062 29.425781 29.34375 C 28.210938 28.496094 28.199219 28.527344 29.820312 28.367188 C 30.976562 28.253906 31.5625 28.054688 31.5625 27.777344 C 31.5625 27.648438 30.972656 26.972656 30.253906 26.273438 C 29.128906 25.179688 28.75 24.90625 27.511719 24.300781 C 25.824219 23.480469 25.210938 22.832031 24.820312 21.449219 C 24.242188 19.386719 22.679688 16.964844 20.605469 14.910156 C 18.46875 12.789062 16.421875 11.617188 14.550781 11.433594 C 13.789062 11.359375 13.394531 11.242188 13.003906 10.976562 C 12.335938 10.527344 10.789062 10.015625 10.03125 10 Z M 13.734375 13.753906 C 13.582031 13.742188 13.449219 13.761719 13.355469 13.824219 C 13.015625 14.058594 13.054688 14.34375 13.457031 14.523438 C 13.644531 14.605469 13.914062 14.898438 14.054688 15.171875 C 14.523438 16.097656 15.238281 15.480469 14.917969 14.425781 C 14.820312 14.09375 14.195312 13.78125 13.734375 13.753906 Z M 13.734375 13.753906 "/>
</g>
<mask id="mask1">
  <g filter="url(#alpha)">
<rect x="0" y="0" width="40" height="40" style="fill:rgb(0%,0%,0%);fill-opacity:0.1;stroke:none;"/>
  </g>
</mask>
<clipPath id="clip2">
  <rect x="0" y="0" width="40" height="40"/>
</clipPath>
<g id="surface8" clip-path="url(#clip2)">
<path style=" stroke:none;fill-rule:nonzero;fill:rgb(100%,100%,100%);fill-opacity:1;" d="M 4.25 2.5 C 3.28125 2.5 2.5 3.28125 2.5 4.25 L 2.5 5.5 C 2.5 4.53125 3.28125 3.75 4.25 3.75 L 35.75 3.75 C 36.71875 3.75 37.5 4.53125 37.5 5.5 L 37.5 4.25 C 37.5 3.28125 36.71875 2.5 35.75 2.5 Z M 4.25 2.5 "/>
</g>
<mask id="mask2">
  <g filter="url(#alpha)">
<rect x="0" y="0" width="40" height="40" style="fill:rgb(0%,0%,0%);fill-opacity:0.2;stroke:none;"/>
  </g>
</mask>
<clipPath id="clip3">
  <rect x="0" y="0" width="40" height="40"/>
</clipPath>
<g id="surface11" clip-path="url(#clip3)">
<path style=" stroke:none;fill-rule:nonzero;fill:rgb(0%,0%,0%);fill-opacity:1;" d="M 2.5 35.75 L 2.5 37 C 2.5 37.96875 3.28125 38.75 4.25 38.75 L 35.75 38.75 C 36.71875 38.75 37.5 37.96875 37.5 37 L 37.5 35.75 C 37.5 36.71875 36.71875 37.5 35.75 37.5 L 4.25 37.5 C 3.28125 37.5 2.5 36.71875 2.5 35.75 Z M 2.5 35.75 "/>
</g>
</defs>
<g id="surface1">
<path style=" stroke:none;fill-rule:nonzero;fill:rgb(14.901961%,33.333334%,48.627451%);fill-opacity:1;" d="M 37.5 35.75 L 37.5 4.25 C 37.5 3.285156 36.714844 2.5 35.75 2.5 L 4.25 2.5 C 3.285156 2.5 2.5 3.285156 2.5 4.25 L 2.5 35.75 C 2.5 36.714844 3.285156 37.5 4.25 37.5 L 35.75 37.5 C 36.714844 37.5 37.5 36.714844 37.5 35.75 Z M 37.5 35.75 "/>
<use xlink:href="#surface5" mask="url(#mask0)"/>
<path style=" stroke:none;fill-rule:nonzero;fill:rgb(100%,100%,100%);fill-opacity:1;" d="M 10.03125 8.75 C 9.054688 8.730469 8.59375 9.40625 8.796875 10.570312 C 8.863281 10.945312 9.191406 11.484375 9.898438 12.371094 C 10.6875 13.359375 11.007812 13.902344 11.351562 14.835938 C 11.890625 16.308594 12.144531 16.804688 12.582031 17.265625 C 12.925781 17.625 12.925781 17.625 12.695312 18.355469 C 12.339844 19.484375 12.265625 21.753906 12.550781 22.824219 C 12.980469 24.417969 13.507812 25.144531 14.242188 25.144531 C 14.765625 25.144531 15.195312 24.703125 15.347656 24.015625 C 15.402344 23.773438 15.503906 23.429688 15.570312 23.253906 C 15.691406 22.941406 15.722656 22.964844 16.1875 23.726562 C 16.457031 24.167969 16.976562 24.828125 17.332031 25.1875 C 18.164062 26.023438 19.300781 26.964844 19.386719 26.886719 C 19.421875 26.851562 19.085938 26.359375 18.648438 25.785156 C 18.207031 25.214844 17.378906 23.886719 16.804688 22.835938 C 16.132812 21.609375 15.679688 20.925781 15.539062 20.925781 C 15.074219 20.921875 14.640625 21.648438 14.390625 22.859375 C 14.105469 24.25 13.597656 24.015625 13.183594 22.300781 C 12.945312 21.3125 13.070312 19.984375 13.515625 18.734375 C 13.714844 18.167969 13.878906 17.644531 13.878906 17.570312 C 13.878906 17.5 13.558594 16.890625 13.164062 16.222656 C 12.769531 15.550781 12.308594 14.601562 12.136719 14.109375 C 11.71875 12.917969 11.523438 12.570312 10.6875 11.554688 C 9.828125 10.511719 9.746094 10.03125 10.433594 10.035156 C 10.964844 10.039062 11.824219 10.394531 12.683594 10.976562 C 13.234375 11.34375 13.417969 11.394531 14.296875 11.394531 C 15.394531 11.394531 15.632812 11.484375 17.160156 12.492188 C 18.714844 13.515625 19.875 14.46875 20.679688 15.382812 C 21.390625 16.191406 21.78125 16.898438 23.878906 21.203125 C 24.683594 22.851562 25.398438 23.648438 26.382812 23.992188 C 27.90625 24.519531 28.421875 24.757812 29.09375 25.238281 L 29.800781 25.746094 L 29.328125 25.839844 C 29.0625 25.890625 28.488281 25.972656 28.054688 26.023438 C 27.144531 26.128906 26.550781 26.503906 26.550781 26.976562 C 26.550781 27.511719 28.363281 29.035156 30.183594 30.027344 C 31.058594 30.507812 31.898438 30.980469 32.050781 31.078125 C 32.457031 31.339844 32.570312 31.304688 32.464844 30.960938 C 32.242188 30.238281 31.496094 29.539062 29.425781 28.09375 C 28.210938 27.246094 28.199219 27.277344 29.820312 27.117188 C 30.980469 27 31.5625 26.804688 31.5625 26.527344 C 31.5625 26.398438 30.976562 25.722656 30.257812 25.023438 C 29.132812 23.925781 28.75 23.65625 27.511719 23.050781 C 25.824219 22.230469 25.210938 21.578125 24.820312 20.199219 C 24.242188 18.136719 22.679688 15.714844 20.609375 13.660156 C 18.46875 11.539062 16.421875 10.367188 14.550781 10.183594 C 13.789062 10.109375 13.394531 9.992188 13.003906 9.726562 C 12.335938 9.273438 10.789062 8.765625 10.03125 8.75 Z M 13.734375 12.503906 C 13.582031 12.492188 13.449219 12.511719 13.359375 12.578125 C 13.015625 12.808594 13.054688 13.09375 13.457031 13.269531 C 13.644531 13.355469 13.914062 13.648438 14.050781 13.921875 C 14.519531 14.847656 15.238281 14.230469 14.921875 13.175781 C 14.820312 12.84375 14.195312 12.53125 13.734375 12.503906 Z M 13.734375 12.503906 "/>
<use xlink:href="#surface8" mask="url(#mask1)"/>
<use xlink:href="#surface11" mask="url(#mask2)"/>
</g>
</svg>
